<svg width="18" height="21" viewBox="0 0 18 21" fill="none" xmlns="http://www.w3.org/2000/svg">
<g filter="url(#filter0_d)">
<path d="M12.75 7.16406L7.4375 12.4766C7.25521 12.6589 7.03385 12.75 6.77344 12.75C6.51302 12.75 6.29167 12.6589 6.10938 12.4766L5.25 11.5781C5.06771 11.3958 4.97656 11.1745 4.97656 10.9141C4.97656 10.6536 5.06771 10.4323 5.25 10.25L9 6.5L5.25 2.75C5.11979 2.61979 5.04167 2.47656 5.01563 2.32031C4.96354 2.16406 4.96354 1.99479 5.01563 1.8125C5.04167 1.65625 5.11979 1.52604 5.25 1.42187L6.10938 0.523437C6.29167 0.341145 6.51302 0.249999 6.77344 0.249999C7.03386 0.249999 7.25521 0.341145 7.4375 0.523437L12.75 5.83594C12.9323 6.01823 13.0234 6.23958 13.0234 6.5C13.0234 6.76042 12.9323 6.98177 12.75 7.16406Z" fill="white"/>
</g>
<defs>
<filter id="filter0_d" x="0.976562" y="0.25" width="16.0469" height="20.5" filterUnits="userSpaceOnUse" color-interpolation-filters="sRGB">
<feFlood flood-opacity="0" result="BackgroundImageFix"/>
<feColorMatrix in="SourceAlpha" type="matrix" values="0 0 0 0 0 0 0 0 0 0 0 0 0 0 0 0 0 0 127 0"/>
<feOffset dy="4"/>
<feGaussianBlur stdDeviation="2"/>
<feColorMatrix type="matrix" values="0 0 0 0 0 0 0 0 0 0 0 0 0 0 0 0 0 0 0.25 0"/>
<feBlend mode="normal" in2="BackgroundImageFix" result="effect1_dropShadow"/>
<feBlend mode="normal" in="SourceGraphic" in2="effect1_dropShadow" result="shape"/>
</filter>
</defs>
</svg>
