<svg width="18" height="21" viewBox="0 0 18 21" fill="none" xmlns="http://www.w3.org/2000/svg">
<g filter="url(#filter0_d)">
<path d="M5.25 5.83594L10.5625 0.523438C10.7448 0.341146 10.9661 0.25 11.2266 0.25C11.487 0.25 11.7083 0.341146 11.8906 0.523438L12.75 1.42188C12.9323 1.60417 13.0234 1.82552 13.0234 2.08594C13.0234 2.34635 12.9323 2.56771 12.75 2.75L9 6.5L12.75 10.25C12.8802 10.3802 12.9583 10.5234 12.9844 10.6797C13.0365 10.8359 13.0365 11.0052 12.9844 11.1875C12.9583 11.3438 12.8802 11.474 12.75 11.5781L11.8906 12.4766C11.7083 12.6589 11.487 12.75 11.2266 12.75C10.9661 12.75 10.7448 12.6589 10.5625 12.4766L5.25 7.16406C5.06771 6.98177 4.97656 6.76042 4.97656 6.5C4.97656 6.23958 5.06771 6.01823 5.25 5.83594Z" fill="white"/>
</g>
<defs>
<filter id="filter0_d" x="0.976562" y="0.25" width="16.0469" height="20.5" filterUnits="userSpaceOnUse" color-interpolation-filters="sRGB">
<feFlood flood-opacity="0" result="BackgroundImageFix"/>
<feColorMatrix in="SourceAlpha" type="matrix" values="0 0 0 0 0 0 0 0 0 0 0 0 0 0 0 0 0 0 127 0"/>
<feOffset dy="4"/>
<feGaussianBlur stdDeviation="2"/>
<feColorMatrix type="matrix" values="0 0 0 0 0 0 0 0 0 0 0 0 0 0 0 0 0 0 0.25 0"/>
<feBlend mode="normal" in2="BackgroundImageFix" result="effect1_dropShadow"/>
<feBlend mode="normal" in="SourceGraphic" in2="effect1_dropShadow" result="shape"/>
</filter>
</defs>
</svg>
