<svg width="48" height="71" viewBox="0 0 48 71" fill="none" xmlns="http://www.w3.org/2000/svg">
<g clip-path="url(#clip0)">
<path d="M45.2243 29.9831H37.9502V21.252C37.9502 13.5764 31.681 7.29189 24.0239 7.29189C16.3669 7.29189 10.0977 13.5764 10.0977 21.252V29.9831H2.77568V21.252C2.77568 9.54662 12.2991 0 24.0239 0C35.7009 0 45.2243 9.54662 45.2243 21.252V29.9831Z" fill="#EDEDED"/>
<path d="M24.0239 71C10.7677 71 0 60.2541 0 46.9656V32.3818C0 30.9906 1.1007 29.8872 2.48853 29.8872H45.5115C46.8993 29.8872 48 30.9906 48 32.3818V46.9656C48 60.2541 37.2802 71 24.0239 71Z" fill="url(#paint0_linear)"/>
<path opacity="0.85" d="M29.1924 44.9509C29.1924 42.0725 26.8953 39.7698 24.0239 39.7698C21.1525 39.7698 18.8554 42.0725 18.8554 44.9509C18.8554 46.9177 19.9561 48.5968 21.5354 49.4603V55.5529C21.5354 56.9441 22.6361 58.0475 24.0239 58.0475C25.4118 58.0475 26.5125 56.9441 26.5125 55.5529V49.4603C28.0917 48.5488 29.1924 46.8698 29.1924 44.9509Z" fill="black"/>
</g>
<defs>
<linearGradient id="paint0_linear" x1="24" y1="29.8872" x2="60.5" y2="73" gradientUnits="userSpaceOnUse">
<stop offset="0.229167" stop-color="#E7B905"/>
<stop offset="1" stop-color="#967800"/>
</linearGradient>
<clipPath id="clip0">
<rect width="48" height="71" fill="white"/>
</clipPath>
</defs>
</svg>
