<svg width="16" height="16" viewBox="0 0 16 16" fill="none" xmlns="http://www.w3.org/2000/svg">
<path d="M8 0C3.58873 0 0 3.58873 0 8C0 12.4113 3.58873 16 8 16C12.4113 16 16 12.4113 16 8C16 3.58873 12.4113 0 8 0ZM8 14.2514C4.55291 14.2514 1.74863 11.4471 1.74863 8C1.74863 4.55308 4.55291 1.74863 8 1.74863C11.4471 1.74863 14.2514 4.55308 14.2514 8C14.2514 11.4471 11.4471 14.2514 8 14.2514Z" fill="#717171"/>
<path d="M8.88469 8.73643V5.38346C8.88469 5.00907 8.58131 4.70569 8.20707 4.70569C7.83271 4.70569 7.5293 5.00907 7.5293 5.38346V8.95295C7.5293 8.96361 7.53193 8.97361 7.53244 8.98427C7.52352 9.16856 7.58701 9.35568 7.72776 9.49646L10.2519 12.0204C10.5167 12.2852 10.9458 12.2852 11.2103 12.0204C11.4749 11.7557 11.4751 11.3266 11.2103 11.062L8.88469 8.73643Z" fill="#717171"/>
</svg>
