<svg width="41" height="41" viewBox="0 0 41 41" fill="none" xmlns="http://www.w3.org/2000/svg">
<path d="M22.7662 22.3869V13.7949C22.7662 12.8355 21.9887 12.0581 21.0298 12.0581C20.0705 12.0581 19.293 12.8355 19.293 13.7949V22.9417C19.293 22.969 19.2997 22.9947 19.301 23.022C19.2782 23.4942 19.4409 23.9737 19.8015 24.3345L26.2697 30.8021C26.9482 31.4806 28.0477 31.4806 28.7257 30.8021C29.4037 30.1237 29.4041 29.0241 28.7257 28.3462L22.7662 22.3869Z" fill="#C9C9C9"/>
<path d="M20.5 0C9.19611 0 0 9.19611 0 20.5C0 31.804 9.19611 41 20.5 41C31.804 41 41 31.8039 41 20.5C41 9.19611 31.804 0 20.5 0ZM20.5 36.5191C11.6668 36.5191 4.48087 29.3332 4.48087 20.5C4.48087 11.6673 11.6668 4.48087 20.5 4.48087C29.3332 4.48087 36.5191 11.6673 36.5191 20.5C36.5191 29.3332 29.3332 36.5191 20.5 36.5191Z" fill="#C9C9C9"/>
</svg>
