<svg width="11" height="11" viewBox="0 0 11 11" fill="none" xmlns="http://www.w3.org/2000/svg">
<path d="M5.5 0C2.46725 0 0 2.46725 0 5.5C0 8.53277 2.46725 11 5.5 11C8.53277 11 11 8.53275 11 5.5C11 2.46725 8.53277 0 5.5 0ZM5.5 9.79782C3.13012 9.79782 1.20219 7.86988 1.20219 5.5C1.20219 3.13024 3.13012 1.20219 5.5 1.20219C7.86988 1.20219 9.79782 3.13024 9.79782 5.5C9.79782 7.86988 7.86988 9.79782 5.5 9.79782Z" fill="#FFE588"/>
<path d="M6.10822 6.00624V3.70107C6.10822 3.44368 5.89965 3.23511 5.64236 3.23511C5.38499 3.23511 5.17639 3.44368 5.17639 3.70107V6.1551C5.17639 6.16243 5.1782 6.1693 5.17855 6.17663C5.17242 6.30333 5.21607 6.43198 5.31284 6.52876L7.04821 8.264C7.23023 8.44601 7.52523 8.44601 7.70711 8.264C7.88901 8.08198 7.88913 7.78697 7.70711 7.60507L6.10822 6.00624Z" fill="#FFE588"/>
</svg>
