<svg width="7" height="7" viewBox="0 0 7 7" fill="none" xmlns="http://www.w3.org/2000/svg">
<path d="M3.5 0C1.57007 0 0 1.57007 0 3.5C0 5.42994 1.57007 7 3.5 7C5.42994 7 7 5.42993 7 3.5C7 1.57007 5.42994 0 3.5 0ZM3.5 6.23497C1.9919 6.23497 0.765027 5.0081 0.765027 3.5C0.765027 1.99197 1.9919 0.765027 3.5 0.765027C5.0081 0.765027 6.23497 1.99197 6.23497 3.5C6.23497 5.0081 5.0081 6.23497 3.5 6.23497Z" fill="#D00000"/>
<path d="M3.88693 3.82229V2.35536C3.88693 2.19157 3.7542 2.05884 3.59047 2.05884C3.42669 2.05884 3.29395 2.19157 3.29395 2.35536V3.91702C3.29395 3.92168 3.2951 3.92605 3.29532 3.93072C3.29142 4.01134 3.3192 4.09321 3.38077 4.1548L4.4851 5.25904C4.60093 5.37487 4.78866 5.37487 4.90441 5.25904C5.02016 5.14321 5.02023 4.95548 4.90441 4.83972L3.88693 3.82229Z" fill="#D00000"/>
</svg>
