<svg width="13" height="15" viewBox="0 0 13 15" fill="none" xmlns="http://www.w3.org/2000/svg">
<path d="M8.58594 6.73828C7.91146 7.41276 7.09115 7.75 6.125 7.75C5.15885 7.75 4.32943 7.41276 3.63672 6.73828C2.96224 6.04557 2.625 5.21615 2.625 4.25C2.625 3.28385 2.96224 2.46354 3.63672 1.78906C4.32943 1.09635 5.15885 0.75 6.125 0.75C7.09115 0.75 7.91146 1.09635 8.58594 1.78906C9.27865 2.46354 9.625 3.28385 9.625 4.25C9.625 5.21615 9.27865 6.04557 8.58594 6.73828ZM8.58594 8.625C9.58854 8.625 10.4453 8.98958 11.1562 9.71875C11.8854 10.4297 12.25 11.2865 12.25 12.2891V13.4375C12.25 13.8021 12.1224 14.112 11.8672 14.3672C11.612 14.6224 11.3021 14.75 10.9375 14.75H1.3125C0.947917 14.75 0.638021 14.6224 0.382812 14.3672C0.127604 14.112 0 13.8021 0 13.4375V12.2891C0 11.2865 0.355469 10.4297 1.06641 9.71875C1.79557 8.98958 2.66146 8.625 3.66406 8.625H4.12891C4.76693 8.91667 5.43229 9.0625 6.125 9.0625C6.81771 9.0625 7.48307 8.91667 8.12109 8.625H8.58594Z" fill="#D3D3D3"/>
</svg>
