<svg width="37" height="20" viewBox="0 0 37 20" fill="none" xmlns="http://www.w3.org/2000/svg">
<path d="M35.2075 18.8551H13.7926L12.3857 1.33758C12.3265 0.617865 12.9002 0 13.6264 0H19.7456C20.1713 0 20.5674 0.215008 20.795 0.5726L21.3368 1.41679C21.4871 1.6499 21.7443 1.79022 22.0221 1.79022H35.2985C35.986 1.79022 36.5278 2.37414 36.4732 3.05538L35.2075 18.8551Z" fill="#FFAA00"/>
<path d="M35.4419 2.72722H13.5558V15.3652H35.4419V2.72722Z" fill="white"/>
<path d="M36.9945 5.95912C37.0628 5.23262 36.4891 4.60344 35.7606 4.60344H13.2394C12.5086 4.60344 11.9372 5.23036 12.0055 5.95912L12.6498 12.8779H36.3525L36.9945 5.95912Z" fill="#FFBE3D"/>
<path d="M12.6475 12.8756L13.2053 18.8732C13.2644 19.5114 13.7994 19.998 14.4391 19.998H34.5564C35.1961 19.998 35.7311 19.5114 35.7902 18.8732L36.348 12.8756H12.6475Z" fill="#F7B22A"/>
<rect x="0.5" y="6.5" width="8" height="8" rx="1.5" fill="#CFEAF0" stroke="#62BDD2"/>
<rect x="2" y="10" width="5" height="1" fill="#62BDD2"/>
</svg>
