<svg width="25" height="20" viewBox="0 0 25 20" fill="none" xmlns="http://www.w3.org/2000/svg">
<path d="M23.2075 18.8551H1.79258L0.385718 1.33758C0.326529 0.617865 0.900203 0 1.6264 0H7.74559C8.17129 0 8.5674 0.215008 8.79504 0.5726L9.33685 1.41679C9.4871 1.6499 9.74434 1.79022 10.0221 1.79022H23.2985C23.986 1.79022 24.5278 2.37414 24.4732 3.05538L23.2075 18.8551Z" fill="#FFAA00"/>
<path d="M23.4419 2.72722H1.55582V15.3652H23.4419V2.72722Z" fill="white"/>
<path d="M24.9945 5.95912C25.0628 5.23262 24.4891 4.60344 23.7606 4.60344H1.2394C0.508646 4.60344 -0.0627507 5.23036 0.00554377 5.95912L0.649788 12.8779H24.3525L24.9945 5.95912Z" fill="#FFBE3D"/>
<path d="M0.647522 12.8756L1.20526 18.8732C1.26445 19.5114 1.79942 19.998 2.43911 19.998H22.5564C23.1961 19.998 23.7311 19.5114 23.7902 18.8732L24.348 12.8756H0.647522Z" fill="#F7B22A"/>
</svg>
