<?xml version="1.0" standalone="no"?>
<!DOCTYPE svg PUBLIC "-//W3C//DTD SVG 1.1//EN" "http://www.w3.org/Graphics/SVG/1.1/DTD/svg11.dtd" >
<svg xmlns="http://www.w3.org/2000/svg">
<metadata>Generated by IcoMoon</metadata>
<defs>
<font id="icomoon" horiz-adv-x="1024">
<font-face units-per-em="1024" ascent="960" descent="-64" />
<missing-glyph horiz-adv-x="1024" />
<glyph unicode="&#x20;" horiz-adv-x="512" d="" />
<glyph unicode="&#xe900;" glyph-name="walk" horiz-adv-x="696" d="M144.66 601.233l147.053 106.815c16.508 12.080 36.587 18.283 57.032 17.619 24.937-0.622 49.061-8.998 69.018-23.964s34.755-35.778 42.34-59.542c8.532-26.749 16.331-44.827 23.4-54.233 21.348-28.484 49.041-51.601 80.884-67.514s66.957-24.183 102.552-24.158v-91.767c-47.383-0.049-94.188 10.404-137.044 30.609-42.861 20.21-80.703 49.668-110.813 86.254l-31.979-181.465 94.562-79.376 101.999-280.248-86.258-31.384-93.602 257.122-155.542 130.535c-12.764 10.31-22.532 23.851-28.286 39.215s-7.283 31.99-4.429 48.148l23.354 132.369-31.062-22.576-97.592-134.341-74.238 53.957 107.87 148.475 0.78-0.551zM414.585 748.607c-24.336 0-47.677 9.668-64.886 26.878s-26.877 40.55-26.877 64.888c0 24.338 9.668 47.678 26.877 64.888s40.55 26.877 64.886 26.877c24.338 0 47.682-9.668 64.889-26.877 17.211-17.209 26.878-40.55 26.878-64.888s-9.667-47.678-26.878-64.888c-17.207-17.209-40.55-26.878-64.889-26.878zM278.224 143.831l-147.466-175.731-70.292 58.958 136.546 162.701 34.228 100.024 82.176-68.825-35.192-77.128z" />
<glyph unicode="&#xe901;" glyph-name="visa" horiz-adv-x="1448" d="M1168.405 496.781c0 0 18.888-80.179 23.114-96.99h-83.015c8.203 19.184 39.767 93.756 39.767 93.756-0.498-0.646 8.203 19.615 13.174 32.115l6.96-28.88zM1431.612 822.884v-758.679c0-57.118-53.439-103.456-119.303-103.456h-1193.008c-65.864 0-119.301 46.338-119.301 103.456v758.679c0 57.117 53.437 103.456 119.301 103.456h1193.008c65.864 0 119.303-46.34 119.303-103.456zM379.028 281.462l157.082 334.509h-105.631l-97.679-228.465-10.687 46.338-34.796 153.893c-5.716 21.337-23.363 27.372-45.235 28.235h-160.808l-1.74-6.682c39.27-8.622 74.315-21.122 104.885-36.856l88.979-290.971h105.63zM613.655 281.032l62.633 334.94h-99.914l-62.386-334.94h99.667zM961.367 390.522c0.498 38.149-26.345 67.249-83.76 91.171-35.042 15.304-56.419 25.649-56.419 41.384 0.498 14.227 18.142 28.88 57.415 28.88 32.56 0.646 56.419-6.035 74.314-12.715l8.948-3.665 13.669 72.42c-19.633 6.681-50.949 14.225-89.476 14.225-98.671 0-168.014-45.692-168.512-110.783-0.745-48.064 49.71-74.791 87.488-90.956 38.524-16.38 51.698-27.157 51.698-41.599-0.498-22.415-31.317-32.761-59.9-32.761-39.767 0-61.143 5.388-93.7 17.888l-13.174 5.388-13.919-75.218c23.365-9.269 66.609-17.461 111.348-17.892 104.886-0.215 173.236 44.83 173.981 114.232zM1312.309 281.032l-80.525 334.94h-77.298c-23.859 0-42.005-6.035-52.196-27.804l-148.381-307.136h104.886c0 0 17.15 41.384 20.879 50.218h128.247c2.984-11.854 11.931-50.218 11.931-50.218h92.457z" />
<glyph unicode="&#xe902;" glyph-name="twitter-radius" d="M512 930.462c-266.431 0-482.462-216.031-482.462-482.462 0-266.429 216.031-482.462 482.462-482.462 266.429 0 482.462 216.032 482.462 482.462 0 266.431-216.032 482.462-482.462 482.462zM743.861 566.785c0.323-5.062 0.323-10.339 0.323-15.507 0-158.094-120.399-340.2-340.413-340.2-67.848 0-130.74 19.708-183.725 53.63 9.692-1.075 18.954-1.508 28.861-1.508 56 0 107.477 18.956 148.507 51.046-52.553 1.075-96.707 35.537-111.784 82.924 18.415-2.694 35-2.694 53.954 2.154-27.060 5.498-51.383 20.192-68.835 41.59s-26.959 48.179-26.903 75.792v1.508c15.831-8.936 34.462-14.431 53.954-15.183-16.386 10.917-29.825 25.714-39.123 43.071-9.299 17.361-14.171 36.743-14.184 56.435 0 22.292 5.816 42.646 16.262 60.308 30.036-36.975 67.516-67.215 110.004-88.756 42.489-21.539 89.034-33.898 136.611-36.273-16.908 81.306 43.831 147.106 116.846 147.106 34.462 0 65.477-14.431 87.339-37.692 27.030 5.062 52.878 15.185 75.922 28.754-8.936-27.677-27.676-51.046-52.551-65.8 24.123 2.584 47.384 9.261 68.923 18.631-16.262-23.908-36.616-45.123-59.987-62.031z" />
<glyph unicode="&#xe903;" glyph-name="twitter" horiz-adv-x="1317" d="M1275.426 824.714c-46.299-20.118-95.286-33.372-145.413-39.343 52.682 30.847 92.297 79.854 111.421 137.829-49.805-29.124-104.204-49.558-160.87-60.428-23.859 25.006-52.556 44.899-84.343 58.47s-66.004 20.536-100.567 20.472c-139.937 0-253.182-111.6-253.182-249.171-0.102-19.136 2.092-38.214 6.529-56.829-100.342 4.704-198.602 30.302-288.488 75.156s-169.418 107.977-233.511 185.329c-22.485-37.906-34.377-81.155-34.431-125.228 0-86.4 45.077-162.772 113.143-207.514-40.327 0.957-79.828 11.63-115.149 31.114v-3.086c0-120.855 87.429-221.402 203.143-244.286-21.76-5.803-44.183-8.738-66.703-8.743-15.979-0.029-31.922 1.521-47.597 4.628 32.168-98.996 125.794-170.998 236.7-173.056-90.119-69.452-200.762-106.988-314.537-106.715-20.196 0.029-40.372 1.234-60.429 3.604 115.745-73.908 250.289-113.006 387.617-112.63 466.353 0 721.133 379.802 721.133 709.199 0 10.8-0.283 21.6-0.8 32.143 49.449 35.176 92.233 78.888 126.332 129.086z" />
<glyph unicode="&#xe904;" glyph-name="truck" horiz-adv-x="860" d="M737.407 932.137h-619.412c-27.38 0-53.638-10.877-72.999-30.237s-30.237-45.619-30.237-72.999v-688.237c-0.001-14.512 3.064-28.865 8.994-42.111s14.592-25.092 25.418-34.755v-39.277c0-14.828 5.892-29.053 16.378-39.539s24.71-16.38 39.541-16.38h60.221c14.831 0 29.054 5.894 39.541 16.38s16.378 24.711 16.378 39.539v12.906h412.941v-12.906c0-14.828 5.894-29.053 16.38-39.539s24.711-16.38 39.539-16.38h60.223c14.832 0 29.053 5.894 39.539 16.38 10.49 10.486 16.38 24.711 16.38 39.539v39.277c10.826 9.662 19.489 21.508 25.416 34.755 5.931 13.246 8.999 27.599 8.995 42.111v688.237c0 27.38-10.875 53.638-30.237 72.999-19.358 19.36-45.617 30.237-72.999 30.237zM194.281 141.050c-14.164-1.54-28.458 1.352-40.909 8.282-12.451 6.926-22.444 17.547-28.602 30.396s-8.176 27.292-5.776 41.337c2.4 14.045 9.1 26.997 19.175 37.073 10.075 10.072 23.029 16.773 37.073 19.173s28.488 0.381 41.336-5.775c12.849-6.156 23.47-16.151 30.398-28.602s9.82-26.743 8.278-40.907c-1.697-15.589-8.666-30.134-19.754-41.222s-25.63-18.055-41.219-19.755zM384.686 381.546h-266.692c-9.127 0-17.879 3.625-24.333 10.080s-10.079 15.204-10.079 24.334v275.293c0 9.127 3.626 17.879 10.079 24.333s15.206 10.079 24.333 10.079h266.692c2.282 0 4.47-0.906 6.083-2.519s2.52-3.802 2.52-6.083v-326.911c0-2.281-0.906-4.473-2.52-6.087-1.613-1.61-3.801-2.519-6.083-2.519zM427.7 794.49h-308.716c-18.496 0-34.412 14.195-35.358 32.67-0.236 4.66 0.478 9.319 2.098 13.695s4.114 8.375 7.329 11.757c3.215 3.382 7.084 6.074 11.371 7.914s8.905 2.789 13.571 2.789h618.425c18.493 0 34.41-14.195 35.357-32.67 0.238-4.66-0.479-9.319-2.097-13.694-1.622-4.375-4.116-8.376-7.328-11.757-3.215-3.382-7.086-6.074-11.375-7.914-4.284-1.84-8.905-2.789-13.57-2.789h-309.707zM470.716 725.666h266.691c9.126 0 17.879-3.625 24.334-10.079 6.451-6.453 10.080-15.206 10.080-24.333v-275.293c0-9.13-3.629-17.879-10.080-24.334-6.455-6.455-15.208-10.080-24.334-10.080h-266.691c-2.281 0-4.469 0.909-6.083 2.519-1.614 1.614-2.519 3.805-2.519 6.087v326.911c0 2.281 0.905 4.47 2.519 6.083s3.801 2.519 6.083 2.519zM600.146 202.027c-1.54 14.164 1.352 28.455 8.282 40.907 6.926 12.452 17.547 22.446 30.396 28.602s27.292 8.176 41.337 5.775c14.045-2.4 26.997-9.101 37.073-19.173 10.072-10.076 16.773-23.028 19.173-37.073s0.381-28.488-5.775-41.337c-6.156-12.849-16.151-23.47-28.602-30.396-12.452-6.93-26.743-9.822-40.907-8.282-15.589 1.7-30.134 8.667-41.222 19.755s-18.055 25.633-19.755 41.222z" />
<glyph unicode="&#xe905;" glyph-name="trash" d="M898.989 736.854c-68.698 6.827-137.389 11.947-206.509 15.787v0.427l-9.389 55.466c-6.4 39.254-15.782 98.134-115.624 98.134h-111.787c-99.413 0-108.8-56.32-115.626-97.707l-8.96-54.613c-39.68-2.56-79.36-5.12-119.040-8.96l-87.040-8.534c-17.92-1.706-30.72-17.493-29.014-34.986s17.067-30.294 34.987-28.587l87.040 8.533c223.573 22.187 448.853 13.654 674.984-8.96 1.28 0 2.138 0 3.418 0 16.211 0 30.291 12.374 32 29.014 1.28 17.493-11.52 33.28-29.44 34.986zM820.48 612.692c-10.24 10.667-24.32 16.64-38.829 16.64h-539.304c-14.506 0-29.013-5.973-38.826-16.64s-15.36-25.173-14.507-40.106l26.453-437.763c4.694-64.851 10.667-145.92 159.574-145.92h273.919c148.909 0 154.88 80.64 159.571 145.92l26.458 437.336c0.851 15.36-4.698 29.867-14.509 40.533zM582.827 202.662h-142.080c-17.493 0-32 14.509-32 32 0 17.498 14.507 32 32 32h142.080c17.494 0 32-14.502 32-32 0-17.491-14.506-32-32-32zM618.667 373.332h-213.333c-17.493 0-32 14.507-32 32s14.507 32 32 32h213.333c17.494 0 32.002-14.506 32.002-32s-14.508-32-32.002-32z" />
<glyph unicode="&#xe906;" glyph-name="star-o" horiz-adv-x="1152" d="M627.372 639.153l-0.001 0.004-51.373 150.92-51.372-150.92c-23.421-68.803-88.621-111.499-157.834-111.499h-153.456l120.243-83.39c0.002-0.001 0.004-0.003 0.006-0.004 58.584-40.627 85.489-115.196 61.745-184.948 0 0 0 0 0 0l-48.33-141.99 132.918 92.186c57.575 39.923 134.591 39.923 192.166 0l0.006-0.006 132.909-92.179-48.326 141.984c0 0-0.006 0-0.006 0.006-23.75 69.761 3.174 144.328 61.747 184.948 0.006 0.002 0.006 0.003 0.006 0.005l120.243 83.389h-153.453c-69.222 0-134.413 42.698-157.837 111.495zM847.546 290.246l75.302-221.21c21.069-61.907-53.158-113.395-108.339-75.136l-197.128 136.723c-24.675 17.107-58.088 17.107-82.762 0l-197.132-136.723c-55.173-38.259-129.409 13.229-108.334 75.136l75.297 221.21c9.425 27.686-0.9 58.022-25.574 75.132l-197.132 136.714c-55.174 38.264-26.818 121.565 41.38 121.565h243.668c30.499 0 57.53 18.746 66.954 46.435l75.298 221.208c21.075 61.912 112.835 61.912 133.906 0l75.302-221.208c9.421-27.688 36.448-46.435 66.957-46.435h243.667c68.198 0 96.55-83.302 41.382-121.565l-197.139-136.714c-24.672-17.109-35.002-47.445-25.574-75.132zM320.032 38.106v0zM136.452 580.978c0.006-0.004 0.012-0.008 0.017-0.012l-0.017 0.012z" />
<glyph unicode="&#xe907;" glyph-name="star-fill" horiz-adv-x="1152" d="M509.044 891.3c21.075 61.912 112.835 61.912 133.906 0l75.302-221.208c9.421-27.688 36.448-46.435 66.957-46.435h243.667c68.198 0 96.55-83.302 41.382-121.565l-197.139-136.714c-24.672-17.109-35.002-47.445-25.574-75.132l75.302-221.21c21.069-61.907-53.158-113.395-108.339-75.136l-197.128 136.723c-24.675 17.107-58.088 17.107-82.762 0l-197.132-136.723c-55.173-38.259-129.409 13.229-108.334 75.136l75.297 221.21c9.425 27.686-0.9 58.022-25.574 75.132l-197.132 136.714c-55.174 38.264-26.818 121.565 41.38 121.565h243.668c30.499 0 57.53 18.746 66.954 46.435l75.298 221.208z" />
<glyph unicode="&#xe908;" glyph-name="show" horiz-adv-x="1317" d="M492.571 448c0-42.435 16.857-83.131 46.863-113.137s70.702-46.863 113.137-46.863c42.435 0 83.129 16.857 113.14 46.863 30.003 30.006 46.863 70.703 46.863 113.137s-16.859 83.131-46.863 113.137c-30.011 30.005-70.705 46.863-113.14 46.863s-83.131-16.857-113.137-46.863c-30.006-30.006-46.863-70.703-46.863-113.137zM1272.854 484.857c-135.424 285.286-340.144 428.857-614.569 428.857-274.572 0-479.143-143.571-614.571-429-5.432-11.502-8.249-24.065-8.249-36.786s2.817-25.283 8.249-36.786c135.429-285.286 340.143-428.858 614.571-428.858 274.572 0 479.145 143.572 614.569 429.001 11.001 23.142 11.001 50 0 73.571zM652.571 196.571c-138.857 0-251.429 112.571-251.429 251.429s112.571 251.429 251.429 251.429c138.857 0 251.431-112.571 251.431-251.429s-112.574-251.429-251.431-251.429z" />
<glyph unicode="&#xe909;" glyph-name="refresh" d="M512 878.545c-239.422 0-430.545-192.803-430.545-430.545 0-19.279-15.629-34.909-34.909-34.909s-34.909 15.63-34.909 34.909c0 276.12 222.2 500.364 500.364 500.364 165.595 0 289.597-69.167 371.512-137.499 22.872-19.080 42.543-38.157 59.034-55.758v132.283c0 19.28 15.63 34.909 34.909 34.909s34.909-15.629 34.909-34.909v-232.727c0-19.28-15.63-34.909-34.909-34.909h-206.662c-19.279 0-34.909 15.629-34.909 34.909s15.63 34.909 34.909 34.909h136.811c-17.375 20.136-40.327 43.913-68.817 67.681-73.197 61.064-181.923 121.294-326.786 121.294zM977.455 482.909c19.279 0 34.909-15.63 34.909-34.909 0-276.21-224.154-500.364-500.364-500.364-140.589 0-252.067 70.758-326.696 138.449-19.809 17.967-37.245 35.91-52.184 52.596v-130.071c0-19.279-15.629-34.909-34.909-34.909s-34.909 15.63-34.909 34.909v232.727c0 19.279 15.629 34.909 34.909 34.909h210.385c19.28 0 34.909-15.63 34.909-34.909s-15.629-34.909-34.909-34.909h-141.633c16.793-20.415 38.694-44.549 65.246-68.631 68.033-61.705 163.449-120.343 279.791-120.343 237.652 0 430.545 192.894 430.545 430.545 0 19.279 15.63 34.909 34.909 34.909z" />
<glyph unicode="&#xe90a;" glyph-name="question" d="M512.015-19.319c-258.089 0-467.3 209.213-467.3 467.305 0 258.089 209.211 467.3 467.3 467.3 258.092 0 467.305-209.211 467.305-467.3 0-258.092-209.213-467.305-467.305-467.305zM512.015 74.142c99.152 0 194.238 39.385 264.348 109.495s109.495 165.196 109.495 264.348c0 99.148-39.385 194.236-109.495 264.345s-165.196 109.495-264.348 109.495c-99.148 0-194.236-39.386-264.345-109.495s-109.495-165.197-109.495-264.345c0-99.152 39.386-194.238 109.495-264.348s165.197-109.495 264.345-109.495zM465.286 307.795h93.462v-93.462h-93.462v93.462zM558.748 384.663v-30.14h-93.462v70.095c0 12.395 4.923 24.279 13.687 33.046 8.763 8.763 20.652 13.683 33.042 13.683 13.278 0.005 26.278 3.773 37.493 10.875s20.187 17.242 25.863 29.241c5.676 11.999 7.831 25.364 6.212 38.54-1.624 13.175-6.953 25.62-15.37 35.885s-19.573 17.93-32.178 22.101c-12.6 4.171-26.132 4.678-39.010 1.461-12.879-3.217-24.58-10.025-33.742-19.632s-15.406-21.618-18.008-34.636l-91.685 18.365c5.684 28.408 18.809 54.797 38.034 76.47s43.861 37.851 71.388 46.883c27.527 9.031 56.959 10.591 85.285 4.519 28.331-6.071 54.535-19.556 75.947-39.076 21.406-19.52 37.244-44.374 45.9-72.022s9.811-57.099 3.355-85.341c-6.461-28.242-20.3-54.265-40.112-75.403s-44.88-36.64-72.641-44.915z" />
<glyph unicode="&#xe90b;" glyph-name="profile-circle" d="M938.667 448c0 235.093-191.573 426.667-426.667 426.667s-426.667-191.573-426.667-426.667c0-123.733 53.333-235.093 137.813-313.173 0-0.427 0-0.427-0.427-0.853 4.267-4.267 9.387-7.68 13.653-11.52 2.56-2.133 4.693-4.267 7.253-5.973 7.68-6.4 16.213-12.373 24.32-18.347 2.987-2.133 5.547-3.84 8.533-5.973 8.107-5.547 16.64-10.667 25.6-15.36 2.987-1.707 6.4-3.84 9.387-5.547 8.533-4.693 17.493-8.96 26.88-12.8 3.413-1.707 6.827-3.413 10.24-4.693 9.387-3.84 18.773-7.253 28.16-10.24 3.413-1.28 6.827-2.56 10.24-3.413 10.24-2.987 20.48-5.547 30.72-8.107 2.987-0.853 5.973-1.707 9.387-2.133 11.947-2.56 23.893-4.267 36.267-5.547 1.707 0 3.413-0.427 5.12-0.853 14.507-1.28 29.013-2.133 43.52-2.133s29.013 0.853 43.093 2.133c1.707 0 3.413 0.427 5.12 0.853 12.373 1.28 24.32 2.987 36.267 5.547 2.987 0.427 5.973 1.707 9.387 2.133 10.24 2.56 20.907 4.693 30.72 8.107 3.413 1.28 6.827 2.56 10.24 3.413 9.387 3.413 19.2 6.4 28.16 10.24 3.413 1.28 6.827 2.987 10.24 4.693 8.96 3.84 17.92 8.107 26.88 12.8 3.413 1.707 6.4 3.84 9.387 5.547 8.533 5.12 17.067 9.813 25.6 15.36 2.987 1.707 5.547 3.84 8.533 5.973 8.533 5.973 16.64 11.947 24.32 18.347 2.56 2.133 4.693 4.267 7.253 5.973 4.693 3.84 9.387 7.68 13.653 11.52 0 0.427 0 0.427-0.427 0.853 84.907 78.080 138.24 189.44 138.24 313.173zM722.773 235.947c-115.627 77.653-305.067 77.653-421.547 0-18.773-12.373-34.133-26.88-46.933-42.667-64.853 65.707-104.96 155.733-104.96 254.72 0 200.107 162.56 362.667 362.667 362.667s362.667-162.56 362.667-362.667c0-98.987-40.107-189.013-104.96-254.72-12.373 15.787-28.16 30.293-46.933 42.667zM512 664.32c-88.32 0-160-71.68-160-160 0-86.613 67.84-157.013 157.867-159.573 1.28 0 2.987 0 3.84 0s2.133 0 2.987 0c0.427 0 0.853 0 0.853 0 86.187 2.987 154.027 72.96 154.453 159.573 0 88.32-71.68 160-160 160z" />
<glyph unicode="&#xe90c;" glyph-name="point" d="M341.333 448c0 94.258 76.41 170.668 170.667 170.668 94.255 0 170.668-76.41 170.668-170.668 0-94.255-76.414-170.664-170.668-170.664-94.256 0-170.667 76.409-170.667 170.664zM512 405.336c-23.566 0-42.668 19.098-42.668 42.664s19.102 42.668 42.668 42.668c23.566 0 42.668-19.102 42.668-42.668s-19.102-42.664-42.668-42.664zM128 448c0-212.080 171.923-384 384-384 212.080 0 384 171.92 384 384 0 212.077-171.92 384-384 384-212.077 0-384-171.923-384-384zM512 149.332c-164.949 0-298.667 133.72-298.667 298.668s133.718 298.667 298.667 298.667c164.948 0 298.668-133.718 298.668-298.667s-133.72-298.668-298.668-298.668z" />
<glyph unicode="&#xe90d;" glyph-name="plus" horiz-adv-x="945" d="M379.234 52.681c0-53.563 41.808-96.989 93.381-96.989s93.382 43.425 93.382 96.989v283.775h285.853c51.57 0 93.381 43.424 93.381 96.99s-41.811 96.991-93.381 96.991h-285.853v273.495c0 53.567-41.808 96.991-93.382 96.991s-93.381-43.424-93.381-96.991v-273.495h-285.853c-51.573 0-93.382-43.424-93.382-96.991s41.808-96.99 93.382-96.99h285.853v-283.775z" />
<glyph unicode="&#xe90e;" glyph-name="minus" horiz-adv-x="3072" d="M0 488.906c0 176.732 143.269 320 320 320h2359.68c176.742 0 320-143.268 320-320s-143.258-320-320-320h-2359.68c-176.731 0-320 143.268-320 320z" />
<glyph unicode="&#xe90f;" horiz-adv-x="1725" d="M491.266-50.068c271.317 0 491.267 219.944 491.267 491.266 0 271.319-219.95 491.266-491.267 491.266-271.319 0-491.266-219.947-491.266-491.266 0-271.321 219.947-491.266 491.266-491.266z" />
<glyph unicode="&#xe910;" horiz-adv-x="1725" d="M1193.073-50.068c271.322 0 491.267 219.944 491.267 491.266 0 271.319-219.944 491.266-491.267 491.266-271.317 0-491.261-219.947-491.261-491.266 0-271.321 219.944-491.266 491.261-491.266z" />
<glyph unicode="&#xe911;" glyph-name="logout" d="M716.8 874.667h-110.933c-136.533 0-221.867-85.333-221.867-221.867v-172.8h266.664c17.496 0 32.002-14.504 32.002-32s-14.507-31.998-32.002-31.998h-266.664v-172.802c0-136.533 85.333-221.867 221.867-221.867h110.509c136.533 0 221.862 85.333 221.862 221.867v409.6c0.429 136.533-84.904 221.867-221.438 221.867zM194.56 480l88.32 88.32c6.4 6.4 9.387 14.507 9.387 22.613s-2.987 16.64-9.387 22.613c-12.373 12.373-32.853 12.373-45.227 0l-142.933-142.931c-12.373-12.376-12.373-32.856 0-45.227l142.933-142.936c12.373-12.371 32.853-12.371 45.227 0 12.373 12.376 12.373 32.856 0 45.227l-88.32 88.322h189.44v63.998h-189.44z" />
<glyph unicode="&#xe912;" glyph-name="locator-bold" horiz-adv-x="808" d="M414.533-64c-68.072 58.066-131.17 121.721-188.632 190.302-86.232 102.993-188.632 256.377-188.632 402.541-0.037 74.646 22.071 147.626 63.525 209.703s100.394 110.461 169.358 139.028c68.963 28.568 144.852 36.035 218.061 21.456 73.208-14.579 140.447-50.547 193.205-103.354 35.129-34.97 62.971-76.56 81.915-122.361 18.949-45.802 28.623-94.906 28.462-144.472 0-146.164-102.4-299.549-188.632-402.541-57.463-68.581-120.558-132.236-188.63-190.302zM414.533 690.528c-42.881 0-84.006-17.035-114.328-47.356s-47.356-71.447-47.356-114.328c0-42.881 17.035-84.006 47.356-114.329 30.322-30.321 71.447-47.357 114.328-47.357s84.006 17.036 114.328 47.357c30.324 30.322 47.355 71.447 47.355 114.329s-17.031 84.006-47.355 114.328c-30.322 30.322-71.447 47.356-114.328 47.356z" />
<glyph unicode="&#xe913;" glyph-name="locator" horiz-adv-x="832" d="M392-55.853c-70.732 60.794-136.293 127.437-196 199.238-89.6 107.827-196 268.415-196 421.439-0.039 78.152 22.932 154.558 66.007 219.549s104.316 115.647 175.973 145.556c71.657 29.909 150.51 37.726 226.579 22.463s145.933-52.921 200.753-108.207c36.499-36.612 65.427-80.154 85.114-128.107s29.741-99.362 29.574-151.255c0-153.025-106.4-313.612-196-421.439-59.707-71.802-125.268-138.445-196-199.238zM392 734.101c-44.556 0-87.288-17.834-118.794-49.58s-49.206-74.801-49.206-119.696c0-44.894 17.7-87.95 49.206-119.696s74.237-49.58 118.794-49.58c44.556 0 87.288 17.834 118.794 49.58s49.206 74.802 49.206 119.696c0 44.895-17.7 87.951-49.206 119.696s-74.238 49.58-118.794 49.58z" />
<glyph unicode="&#xe914;" glyph-name="instagram" horiz-adv-x="979" d="M489.739 948.87c131.045 0 147.398-0.501 198.812-3.005 51.365-2.504 86.337-10.869 117.106-23.29 31.833-12.722 58.653-29.952 85.468-57.75 24.527-25.038 43.502-55.325 55.612-88.754 11.914-31.905 20.017-68.268 22.426-121.611 2.266-53.393 2.894-70.372 2.894-206.458s-0.481-153.066-2.894-206.456c-2.409-53.346-10.512-89.658-22.426-121.611-12.074-33.449-31.058-63.742-55.612-88.759-24.117-25.458-53.284-45.163-85.468-57.749-30.724-12.373-65.741-20.787-117.106-23.289-51.414-2.355-67.767-3.005-198.812-3.005-131.047 0-147.397 0.499-198.812 3.005-51.367 2.502-86.335 10.917-117.107 23.289-32.203 12.551-61.374 32.26-85.467 57.749-24.531 25.035-43.508 55.323-55.611 88.759-11.962 31.904-20.016 68.265-22.428 121.611-2.267 53.39-2.894 70.371-2.894 206.456s0.482 153.066 2.894 206.458 10.466 89.656 22.428 121.611c12.070 33.449 31.052 63.744 55.611 88.754 24.1 25.482 53.268 45.192 85.467 57.75 30.772 12.422 65.692 20.786 117.107 23.29 51.415 2.354 67.766 3.005 198.812 3.005zM489.739 698.435c-63.96 0-125.3-26.385-170.526-73.35s-70.634-110.667-70.634-177.084c0-66.418 25.408-130.119 70.634-177.085s106.566-73.35 170.526-73.35c63.96 0 125.298 26.384 170.527 73.35 45.225 46.966 70.634 110.668 70.634 177.085s-25.409 130.118-70.634 177.084c-45.23 46.966-106.567 73.35-170.527 73.35zM803.248 710.957c0 16.605-6.353 32.53-17.662 44.271-11.304 11.741-26.642 18.338-42.63 18.338-15.992 0-31.325-6.596-42.634-18.338-11.304-11.741-17.657-27.666-17.657-44.271s6.353-32.53 17.657-44.271c11.309-11.741 26.642-18.338 42.634-18.338 15.988 0 31.325 6.596 42.63 18.338 11.309 11.741 17.662 27.666 17.662 44.271zM489.739 598.261c38.373 0 75.179-15.831 102.315-44.010s42.38-66.399 42.38-106.251c0-39.851-15.244-78.073-42.38-106.251s-63.942-44.010-102.315-44.010c-38.378 0-75.18 15.832-102.316 44.010s-42.38 66.4-42.38 106.251c0 39.851 15.245 78.071 42.38 106.251s63.938 44.010 102.316 44.010z" />
<glyph unicode="&#xe915;" glyph-name="hide" d="M508 336c29.703 0 58.19 11.802 79.198 32.804 21.002 21.007 32.804 49.495 32.804 79.197 0 3.28-0.154 6.53-0.43 9.74l-121.312-121.311c3.21-0.276 6.45-0.43 9.74-0.43zM878.72 794.441l-42.721 42.68c-1.5 1.499-3.533 2.341-5.652 2.341-2.125 0-4.157-0.842-5.658-2.341l-109.317-109.35c-60.308 30.82-128.097 46.23-203.372 46.23-192.2 0-335.6-100.1-430.2-300.3-3.803-8.052-5.775-16.846-5.775-25.753 0-8.904 1.972-17.695 5.775-25.748 37.8-79.621 83.317-143.437 136.55-191.447l-105.79-105.754c-1.499-1.5-2.341-3.533-2.341-5.652s0.842-4.157 2.341-5.658l42.69-42.691c1.5-1.495 3.534-2.34 5.655-2.34s4.155 0.845 5.655 2.34l712.16 712.122c0.742 0.743 1.331 1.625 1.736 2.596s0.609 2.012 0.609 3.063c0 1.052-0.205 2.093-0.609 3.064s-0.993 1.853-1.736 2.596zM332 448.001c-0.003 30.399 7.868 60.281 22.846 86.735s36.553 48.575 62.623 64.212c26.070 15.637 55.745 24.254 86.134 25.014 30.392 0.759 60.457-6.366 87.276-20.681l-48.62-48.62c-19.61 6.278-40.566 7.034-60.576 2.185s-38.297-15.116-52.855-29.674c-14.559-14.558-24.825-32.845-29.674-52.855s-4.093-40.966 2.185-60.575l-48.62-48.62c-13.644 25.492-20.763 53.965-20.72 82.878zM942.203 473.8c-35.2 74.133-77.097 134.583-125.691 181.35l-144.143-144.15c12.15-31.761 14.848-66.364 7.757-99.618-7.091-33.26-23.66-63.754-47.703-87.803-24.049-24.044-54.543-40.612-87.803-47.703-33.257-7.091-67.857-4.398-99.619 7.752l-122.26-122.255c56.72-26.25 119.806-39.373 189.259-39.373 192.2 0 335.601 100.101 430.203 300.298 3.799 8.054 5.775 16.85 5.775 25.753 0 8.904-1.976 17.698-5.775 25.75z" />
<glyph unicode="&#xe916;" glyph-name="filter" horiz-adv-x="979" d="M4.717 780.217c-26.636 104.584 64.369 179.783 151.364 179.783h667.304c86.92 0 177.86-75.19 151.441-179.688l-0.040-0.159c-18.187-71.060-51.69-137.267-98.153-193.967s-104.76-102.515-170.79-134.233c-32.18-15.453-49.286-42.006-49.286-65.638v-283.221c-0.009-20.685-5.77-40.991-16.633-58.582-10.859-17.591-26.392-31.802-44.856-41.049l-111.22-55.706c-16.949-8.486-35.795-12.502-54.729-11.647-18.931 0.855-37.331 6.54-53.452 16.522-16.122 9.977-29.431 23.917-38.664 40.493-9.234 16.58-14.086 35.248-14.096 54.232v338.957c0 23.623-17.087 50.172-49.314 65.625-66.004 31.735-124.32 77.579-170.76 134.277s-79.924 122.895-98.101 193.94l-0.015 0.060zM112.476 807.786c14.148-55.276 40.203-106.779 76.336-150.893 36.135-44.117 81.473-79.774 132.829-104.468 59.295-28.447 112.483-88.13 112.483-166.11v-338.899l111.205 55.701 0.013 283.198c0 77.98 53.186 137.662 112.422 166.108zM657.764 552.423c51.383 24.679 96.75 60.335 132.911 104.458 36.134 44.097 62.197 95.584 76.355 150.845 2.444 9.742 0.036 18.278-7.026 25.918-7.76 8.392-20.965 14.939-36.619 14.939h-667.304c-15.738 0-28.94-6.567-36.66-14.924-7.026-7.607-9.424-16.112-6.946-25.874z" />
<glyph unicode="&#xe917;" glyph-name="facebook-radius" d="M14.319 447.898c0.058-244.877 178.125-453.38 419.976-491.755v347.9h-126.288v143.855h126.437v109.511c-5.653 51.892 12.070 103.607 48.367 141.123 36.292 37.516 87.394 56.942 139.447 53.010 37.355-0.604 74.62-3.931 111.501-9.956v-122.403h-62.921c-21.662 2.837-43.439-4.317-59.2-19.447s-23.795-36.598-21.837-58.354v-93.484h137.933l-22.050-143.906h-115.883v-347.849c261.551 41.335 444.962 280.209 417.361 543.569-27.605 263.36-256.567 459.008-521.007 445.208-264.446-13.801-471.795-232.22-471.838-497.022z" />
<glyph unicode="&#xe918;" glyph-name="facebook" horiz-adv-x="975" d="M667.331-45.714v382.137h123.241l18.437 148.551h-141.678v94.793c0 43.008 11.518 72.356 70.89 72.356h75.752v132.864c-36.669 4.040-73.528 6-110.402 5.869-109.193 0-183.94-69.23-183.94-196.389v-109.495h-123.506v-148.551h123.506v-382.137h-454.616c-14.010 0-27.446 5.778-37.353 16.067s-15.472 24.24-15.472 38.79v877.714c0 14.549 5.566 28.502 15.472 38.79s23.343 16.067 37.353 16.067h845.208c14.009 0 27.443-5.78 37.352-16.067s15.472-24.241 15.472-38.79v-877.714c0-14.551-5.564-28.501-15.472-38.79s-23.342-16.067-37.352-16.067h-242.893z" />
<glyph unicode="&#xe919;" glyph-name="email" horiz-adv-x="1385" d="M0 921.529v-947.057h1385.412v947.057h-1385.412zM1236.456 840.353l-543.75-473.811-543.755 473.811h1087.505zM81.177 791.736l362.672-316.017-362.672-362.669v678.687zM138.576 55.645l366.617 366.619 187.512-163.397 187.512 163.394 366.616-366.616h-1108.258zM1304.233 113.044l-362.671 362.676 362.671 316.017v-678.693z" />
<glyph unicode="&#xe91a;" glyph-name="close" d="M208.941 29.825c-39.99-39.989-104.826-39.989-144.816 0s-39.99 104.826 0 144.815l284.069 284.070-284.069 284.069c-39.99 39.989-39.99 104.826 0 144.816s104.825 39.99 144.816 0l284.069-284.069 292.351 292.351c39.99 39.99 104.826 39.99 144.816 0s39.989-104.826 0-144.816l-292.351-292.351 292.351-292.351c39.989-39.99 39.989-104.826 0-144.816s-104.826-39.989-144.816 0l-292.351 292.351-284.069-284.069z" />
<glyph unicode="&#xe91b;" glyph-name="clock" d="M512 913.455c-92.058 0-182.049-27.298-258.593-78.443s-136.202-123.839-171.431-208.889c-35.229-85.051-44.447-178.639-26.487-268.928s62.29-173.224 127.385-238.322c65.095-65.094 148.031-109.424 238.32-127.381 90.289-17.962 183.878-8.746 268.926 26.484 85.053 35.23 157.747 94.888 208.891 171.432s78.443 166.535 78.443 258.593c-0.144 123.402-49.231 241.707-136.49 328.965s-205.563 136.344-328.965 136.489zM512 67.174c-75.32 0-148.949 22.333-211.576 64.182-62.626 41.844-111.438 101.32-140.262 170.91-28.824 69.585-36.365 146.157-21.671 220.029s50.964 141.73 104.224 194.99 121.116 89.53 194.99 104.224c73.872 14.694 150.444 7.153 220.029-21.672 69.59-28.824 129.066-77.635 170.91-140.261 41.849-62.627 64.182-136.256 64.182-211.576-0.121-100.962-40.285-197.758-111.677-269.149s-168.187-111.555-269.149-111.677zM558.774 448.279v236.632c0 11.235-4.915 22.010-13.666 29.954s-20.62 12.407-32.991 12.407c-12.376 0-24.246-4.463-32.996-12.407s-13.666-18.719-13.666-29.954v-254.17c0.005-11.231 4.92-22.007 13.67-29.947l139.981-127.083c8.802-7.717 20.587-11.985 32.819-11.892 12.237 0.098 23.938 4.552 32.591 12.409 8.653 7.852 13.559 18.479 13.666 29.584 0.102 11.106-4.599 21.807-13.098 29.798l-126.31 114.669z" />
<glyph unicode="&#xe91c;" glyph-name="checked" horiz-adv-x="1280" d="M1120.873 803.599c51.572-48.349 54.185-129.353 5.836-180.925l-491.66-524.436c-47.444-50.609-126.57-54.212-178.419-8.124l-294.995 262.218c-52.836 46.966-57.595 127.871-10.629 180.707 46.964 52.837 127.871 57.596 180.707 10.63l201.83-179.405 406.405 433.499c48.349 51.573 129.352 54.186 180.925 5.837z" />
<glyph unicode="&#xe91d;" glyph-name="cart" horiz-adv-x="796" d="M583.592 648.499h-489.564v-597.333h611.557v597.333h-121.993zM583.592 709.371v-18.205h164.659v-682.668h-696.89v682.668h141.972v18.205c0 107.767 87.362 195.129 195.129 195.129 107.765 0 195.129-87.362 195.129-195.129zM236 691.167h304.925v18.205c0 84.202-68.261 152.462-152.462 152.462-84.204 0-152.463-68.26-152.463-152.462v-18.205zM611.055 457.139c-12.843 64.85-99.925 90.852-170.092 90.553-39.157 0-82.384-6.875-121.227-19.425-119.659-35.863-189.826-143.15-67.973-203.218 65.467-31.38 151.924-21.817 221.152 2.987-26.001-31.081-32.577-49.311-38.844-113.863-2.506-26.894-26.94-50.204-55.131-50.506-37.276-0.597-61.394 43.634-64.529 74.118-1.564 11.952-12.217 20.918-24.747 20.918-14.409 0.299-26.625-12.553-24.746-26.001 1.253-10.758 4.072-35.86 30.386-63.653 62.020-63.357 175.73-41.54 188.885 63.056 8.459 71.128 42.288 119.839 48.868 128.506 4.386 5.678-2.506 13.449-9.085 10.16-20.048-9.264-73.611-30.78-138.453-30.78-49.493-1.195-139.709 19.723-140.022 68.139 0.94 68.434 116.84 103.7 185.442 101.908 51.374 0 94.913-13.449 116.215-35.863 11.588-12.254 14.407-23.31 7.518-31.38-14.097-16.435-45.107-11.952-67.977-6.275-22.554 5.976-45.42 19.723-64.529 38.252-4.696 4.483-11.588 6.275-16.913 2.691-5.641-3.587-7.205-10.761-3.447-16.139 9.398-13.747 29.446-34.367 55.76-46.919 39.782-19.723 97.419-21.22 133.441 2.691 15.662 10.16 22.241 23.908 20.048 40.044z" />
<glyph unicode="&#xe91e;" glyph-name="carret-right" horiz-adv-x="683" d="M568.89 555.377l-368.356 368.356c-48.355 47.644-130.844 13.511-130.844-54.756v-841.952c0-68.267 82.489-102.4 130.844-54.050l368.356 368.358c59.023 58.311 59.023 155.023 0 214.044z" />
<glyph unicode="&#xe91f;" glyph-name="carret-down" horiz-adv-x="1843" d="M984.943 68.27c-37.161-29.258-89.524-29.258-126.685 0l-679.889 535.273c-76.369 60.125-33.853 182.856 63.344 182.856h1359.774c97.198 0 139.713-122.731 63.345-182.856l-679.889-535.273z" />
<glyph unicode="&#xe920;" glyph-name="car" horiz-adv-x="1132" d="M958.879 52.768h-785.967v-56.137c0-14.891-5.914-29.168-16.443-39.699-10.528-10.526-24.808-16.443-39.697-16.443h-56.141c-14.889 0-29.169 5.918-39.697 16.443-10.528 10.531-16.443 24.808-16.443 39.699v505.262l141.081 376.253c8.024 21.406 22.392 39.854 41.182 52.876s41.108 19.997 63.969 19.995h630.343c22.862 0.003 45.18-6.973 63.968-19.995 18.793-13.022 33.161-31.469 41.186-52.876l141.080-376.253v-505.262c0-14.891-5.918-29.168-16.443-39.699-10.531-10.526-24.808-16.443-39.699-16.443h-56.142c-14.886 0-29.168 5.918-39.693 16.443-10.531 10.531-16.443 24.808-16.443 39.699v56.137zM124.407 501.894h882.977l-126.318 336.842h-630.343l-126.316-336.842zM257.123 221.189c22.334 0 43.753 8.876 59.546 24.668s24.664 37.209 24.664 59.543c0 22.334-8.872 43.757-24.664 59.548s-37.212 24.662-59.546 24.662c-22.334 0-43.753-8.871-59.546-24.662s-24.665-37.214-24.665-59.548c0-22.334 8.872-43.752 24.665-59.543s37.212-24.668 59.546-24.668zM874.668 221.189c22.334 0 43.752 8.876 59.543 24.668s24.668 37.209 24.668 59.543c0 22.334-8.876 43.757-24.668 59.548s-37.209 24.662-59.543 24.662c-22.334 0-43.757-8.871-59.548-24.662s-24.662-37.214-24.662-59.548c0-22.334 8.871-43.752 24.662-59.543s37.214-24.668 59.548-24.668z" />
<glyph unicode="&#xe921;" glyph-name="calendar" horiz-adv-x="983" d="M286.72 490.668h81.92v-85.332h-81.92v85.332zM286.72 320h81.92v-85.332h-81.92v85.332zM450.56 490.668h81.92v-85.332h-81.92v85.332zM450.56 320h81.92v-85.332h-81.92v85.332zM614.4 490.668h81.92v-85.332h-81.92v85.332zM614.4 320h81.92v-85.332h-81.92v85.332zM204.8 21.336h573.44c45.179 0 81.92 38.269 81.92 85.332v597.333c0 47.061-36.741 85.333-81.92 85.333h-81.92v85.334h-81.92v-85.334h-245.76v85.334h-81.92v-85.334h-81.92c-45.179 0-81.92-38.272-81.92-85.333v-597.333c0-47.063 36.741-85.332 81.92-85.332zM778.24 618.668l0.041-512h-573.481v512h573.44z" />
<glyph unicode="&#xe922;" glyph-name="bicycle" d="M637.239 577.646l-58.747 119.685c-12.307 27.681-12.307 27.681-52.774 27.681-26.404 0-29.393 0-45.803-14.537l-142.784-137.607c-16.529-16.828-18.52-18.819-18.52-52.971 0-25.232 7.528-29.097 36.861-45.606l122.452-67.906v-179.23h63.727v227.025c0 0-57.754 33.853-96.188 59.741l97.382 102.56c37.239-56.757 54.367-102.56 75.674-102.56h146.17v63.727h-127.45zM772.657 67.842c-36.238 0-71.661 10.744-101.789 30.875s-53.612 48.746-67.478 82.223c-13.866 33.477-17.495 70.315-10.426 105.855s24.519 68.183 50.142 93.806c25.623 25.623 58.266 43.072 93.806 50.142s72.378 3.44 105.855-10.426c33.477-13.866 62.092-37.349 82.223-67.478s30.875-65.551 30.875-101.789c-0.053-48.572-19.373-95.141-53.718-129.49-34.346-34.346-80.919-53.665-129.49-53.718zM772.657 370.536c-23.632 0-46.736-7.005-66.386-20.135s-34.964-31.79-44.005-53.623c-9.045-21.834-11.412-45.856-6.8-69.037 4.612-23.177 15.99-44.468 32.7-61.178s38.002-28.092 61.178-32.7c23.18-4.612 47.203-2.245 69.037 6.8 21.834 9.042 40.494 24.356 53.623 44.005s20.139 42.75 20.139 66.382c-0.038 31.68-12.641 62.051-35.040 84.45s-52.77 35.002-84.446 35.036zM246.919 67.842c-36.236 0-71.658 10.744-101.787 30.875s-53.612 48.746-67.479 82.223c-13.867 33.477-17.495 70.315-10.426 105.855s24.518 68.183 50.141 93.806c25.622 25.623 58.267 43.072 93.807 50.142s72.377 3.44 105.855-10.426c33.478-13.866 62.091-37.349 82.223-67.478s30.875-65.551 30.875-101.789c-0.053-48.572-19.373-95.141-53.719-129.49-34.348-34.346-80.917-53.665-129.492-53.718zM246.919 370.536c-23.632 0-46.733-7.005-66.383-20.135s-34.964-31.79-44.008-53.623c-9.043-21.834-11.41-45.856-6.799-69.037 4.61-23.177 15.99-44.468 32.701-61.178s38.001-28.092 61.178-32.7c23.178-4.612 47.203-2.245 69.036 6.8 21.833 9.042 40.494 24.356 53.623 44.005s20.137 42.75 20.137 66.382c-0.037 31.68-12.638 62.051-35.037 84.45s-52.77 35.002-84.448 35.036zM637.247 705.098c8.393-0.029 16.71 1.606 24.47 4.811 7.756 3.205 14.802 7.916 20.727 13.86 5.928 5.944 10.615 13.004 13.797 20.772 3.178 7.768 4.786 16.089 4.733 24.482 0.091 8.351-1.479 16.637-4.627 24.374s-7.805 14.768-13.703 20.683c-5.897 5.915-12.914 10.595-20.639 13.766s-16.009 4.77-24.36 4.704c-8.366 0.026-16.661-1.596-24.402-4.774s-14.78-7.85-20.715-13.749c-5.939-5.899-10.653-12.91-13.881-20.631s-4.9-16.003-4.927-24.372c-0.027-8.369 1.597-16.66 4.775-24.402s7.851-14.781 13.748-20.717c5.901-5.936 12.91-10.652 20.632-13.879s16.005-4.901 24.371-4.927z" />
<glyph unicode="&#xe923;" glyph-name="back" horiz-adv-x="1741" d="M584.405 930.008c39.989-39.99 39.989-104.826 0-144.816l-234.793-234.793h1288.788c56.556 0 102.4-45.846 102.4-102.4s-45.844-102.4-102.4-102.4h-1288.787l234.792-234.791c39.989-39.99 39.989-104.826 0-144.816-39.99-39.986-104.826-39.986-144.816 0l-337.192 337.193c-79.979 79.978-79.98 209.651 0 289.63l337.193 337.193c39.989 39.99 104.825 39.99 144.815 0z" />
<glyph unicode="&#xe924;" glyph-name="arrow-up" horiz-adv-x="1707" d="M1626.51 16.157c-49.988-49.987-131.033-49.987-181.019 0l-542.502 542.505-542.505-542.505c-49.987-49.987-131.033-49.987-181.019 0s-49.987 131.033 0 181.019l633.015 633.015c24.004 24.005 56.562 37.49 90.51 37.49s66.505-13.486 90.51-37.491l633.011-633.014c49.987-49.988 49.987-131.033 0-181.019z" />
<glyph unicode="&#xe925;" glyph-name="arrow-right" horiz-adv-x="614" d="M92.782-1.012c-29.992 29.992-29.992 78.62 0 108.612l325.503 325.501-325.503 325.503c-29.992 29.992-29.992 78.619 0 108.611s78.62 29.992 108.611 0l379.809-379.808c14.403-14.404 22.494-33.937 22.494-54.306s-8.092-39.903-22.494-54.306l-379.809-379.807c-29.992-29.993-78.62-29.993-108.612 0z" />
<glyph unicode="&#xe926;" glyph-name="arrow-down" horiz-adv-x="1707" d="M80.157 879.843c49.987 49.987 131.033 49.987 181.019-0.001l542.502-542.505 542.505 542.505c49.987 49.987 131.033 49.987 181.019 0s49.987-131.033 0-181.019l-633.015-633.015c-24.004-24.004-56.562-37.49-90.51-37.49s-66.505 13.486-90.51 37.49l-633.012 633.015c-49.987 49.988-49.987 131.033 0.001 181.020z" />
<glyph unicode="&#xe927;" glyph-name="rotate-right" d="M511.998-10.675c-221.867 0-401.92 180.48-401.92 401.923 0 221.44 180.053 402.346 401.92 402.346 45.653 0 90.027-6.4 132.693-19.626 17.069-5.12 26.451-23.040 21.331-40.107s-23.040-26.453-40.104-21.333c-36.267 11.093-74.667 17.066-113.92 17.066-186.453 0-337.92-151.466-337.92-337.92 0-186.451 151.467-337.92 337.92-337.92s337.922 151.469 337.922 337.92c0 67.414-19.629 132.267-56.749 187.734-9.811 14.506-5.971 34.56 8.96 44.373 14.509 9.813 34.56 5.973 44.371-8.96 44.378-66.133 67.84-143.36 67.84-223.573-0.422-221.443-180.48-401.923-402.344-401.923zM688.218 701.015c-8.96 0-17.92 3.84-24.32 11.093l-123.308 141.653c-11.52 13.227-10.24 33.707 2.986 45.227s33.707 10.24 45.227-2.987l123.306-141.653c11.52-13.227 10.24-33.707-2.982-45.227-5.549-5.546-13.229-8.106-20.909-8.106zM544.431 596.066c-9.814 0-19.627 4.693-26.027 13.226-10.24 14.080-7.253 34.134 6.827 44.8l143.787 104.96c14.080 10.667 34.131 7.254 44.8-6.826s7.251-34.134-6.829-44.8l-143.785-105.387c-5.547-4.267-11.947-5.973-18.773-5.973z" />
<glyph unicode="&#xe928;" glyph-name="edit-border-bottom" d="M896 21.333h-768c-17.493 0-32 14.507-32 32s14.507 32 32 32h768c17.493 0 32-14.507 32-32s-14.507-32-32-32zM811.521 811.513c-82.773 82.773-163.84 84.907-248.747 0l-51.627-51.627c-4.267-4.267-5.973-11.093-4.267-17.067 32.427-113.067 122.88-203.52 235.947-235.947 1.707-0.427 3.413-0.853 5.12-0.853 4.693 0 8.96 1.707 12.373 5.12l51.2 51.627c42.239 41.813 62.719 82.347 62.719 123.307 0.427 42.24-20.053 83.2-62.719 125.44zM666.028 468.062c-12.373 5.973-24.32 11.947-35.84 18.773-9.387 5.547-18.347 11.52-27.307 17.92-7.253 4.693-15.787 11.52-23.893 18.347-0.853 0.427-3.84 2.987-7.253 6.4-14.080 11.947-29.867 27.307-43.947 44.373-1.28 0.853-3.413 3.84-6.4 7.68-4.267 5.12-11.52 13.653-17.92 23.467-5.12 6.4-11.093 15.787-16.64 25.173-6.827 11.52-12.8 23.040-18.773 34.987-7.832 16.783-29.859 21.768-42.954 8.672l-239.926-239.926c-5.547-5.547-10.667-16.213-11.947-23.467l-23.040-163.413c-4.267-29.013 3.84-56.32 21.76-74.667 15.36-14.933 36.693-23.040 59.733-23.040 5.12 0 10.24 0.427 15.36 1.28l163.84 23.040c7.68 1.28 18.347 6.4 23.467 11.947l240.322 240.322c12.833 12.833 8.011 34.915-8.642 42.132z" />
<glyph unicode="&#xe929;" glyph-name="printer" d="M298.662 746.669c0 70.827 57.174 128 128 128h170.668c70.825 0 128-57.173 128-128 0-23.466-19.2-42.666-42.665-42.666h-341.336c-23.467 0-42.667 19.2-42.667 42.666zM757.33 320c0-17.495-14.505-32-32-32h-42.665v-138.665c0-70.83-57.175-128-128-128h-85.336c-70.827 0-128 57.17-128 128v138.665h-42.667c-17.493 0-32 14.505-32 32s14.507 32 32 32h426.668c17.495 0 32-14.505 32-32zM768 661.331h-512c-85.334 0-128-42.667-128-128v-213.331c0-85.335 42.666-128 128-128h16c14.728 0 26.666 11.935 26.666 26.665 0 14.725-12.318 26.22-26.094 31.427-28.255 10.675-48.572 38.108-48.572 69.908 0 40.96 33.706 74.665 74.666 74.665h426.669c40.96 0 74.665-33.705 74.665-74.665 0-31.8-20.316-59.233-48.573-69.908-13.778-5.207-26.092-16.701-26.092-31.427 0-14.73 11.94-26.665 26.665-26.665h16c85.335 0 128 42.665 128 128v213.331c0 85.333-42.665 128-128 128zM426.666 458.664h-128c-17.493 0-32 14.507-32 32s14.507 32 32 32h128c17.494 0 32-14.506 32-32s-14.506-32-32-32z" />
</font>
</defs>
</svg>
