<svg width="567" height="127" viewBox="0 0 567 127" fill="none" xmlns="http://www.w3.org/2000/svg">
<g clip-path="url(#clip0_1_3)">
<rect width="567" height="127" fill="white"/>
<ellipse cx="284" cy="-240" rx="411" ry="334" fill="#FFC100"/>
<g clip-path="url(#clip1_1_3)">
<path d="M302.821 122.335C302.368 122.307 302.028 122.279 301.689 122.223C299.708 121.86 298.066 122.447 296.962 124.095C295.547 126.218 292.83 126.749 290.764 125.575C289.009 124.57 287.255 124.765 285.642 125.966C283.632 127.475 281.198 127.307 279.472 125.492C278 123.983 276.302 123.564 274.292 124.262C272.028 125.072 269.708 124.095 268.66 121.944C267.981 120.519 266.962 119.625 265.406 119.262C264.981 119.15 264.557 119.178 264.132 119.178C261.585 119.206 259.717 117.558 259.462 115.072C259.264 113.256 258.019 111.775 256.208 111.273C254.509 110.798 253.377 109.764 252.896 108.06C252.698 107.39 252.726 106.691 252.868 105.993C253.264 103.982 252.613 102.389 250.915 101.216C248.821 99.7912 248.255 97.4168 249.472 95.2099C250.462 93.422 250.321 91.718 249.047 90.0698C247.519 88.1144 247.717 85.684 249.557 83.98C250.745 82.8626 251.255 81.5496 251.057 79.9573C251 79.5942 250.887 79.259 250.774 78.9237C249.953 76.6331 250.915 74.3424 253.151 73.3088C255.047 72.4149 256.038 70.9622 255.925 68.8951C255.84 66.6602 257.34 64.9283 259.038 64.4534C259.349 64.3696 259.689 64.2858 260.028 64.2578C262.009 64.0064 263.396 62.8611 263.962 60.9615C264.302 59.8162 264.953 58.9222 265.972 58.2797C266.991 57.6652 268.094 57.4975 269.226 57.721C271.292 58.1121 272.906 57.4975 274.123 55.7656C275.538 53.7263 277.972 53.1397 280.151 54.3409C281.991 55.3465 283.745 55.2069 285.415 53.9498C287.368 52.4692 289.858 52.6648 291.557 54.4247C292.377 55.2907 293.34 55.8494 294.557 55.9891C295.321 56.0729 296.028 55.9052 296.736 55.6818C298.575 55.0672 300.217 55.4583 301.604 56.7992C301.915 57.1065 302.17 57.4975 302.368 57.9166C303.274 59.9279 304.83 60.8218 307.038 60.7659C309.132 60.7101 310.915 62.023 311.453 63.9785C311.538 64.2858 311.594 64.5931 311.623 64.9003C311.906 66.8558 313.009 68.1129 314.906 68.6716C316.462 69.1185 317.566 70.0683 318.104 71.6048C318.358 72.3311 318.415 73.0853 318.245 73.8396C317.792 75.9347 318.5 77.5549 320.283 78.7561C322.292 80.125 322.858 82.5553 321.67 84.6784C320.651 86.4662 320.792 88.1703 322.038 89.8184C323.594 91.8298 323.396 94.2322 321.528 95.9641C320.028 97.3609 319.604 99.037 320.311 100.965C321.16 103.283 320.17 105.574 317.934 106.607C316.066 107.473 315.132 108.926 315.16 110.965C315.217 113.535 313.547 115.379 310.972 115.686C309.047 115.91 307.774 116.999 307.208 118.787C306.953 119.597 306.642 120.324 306.019 120.938C305.057 121.888 303.981 122.335 302.821 122.335Z" fill="#FF9999"/>
<path d="M285.613 110.826C276.868 110.909 268.887 104.847 267.075 95.8524C266.877 94.9026 266.764 93.9249 266.764 92.9192C266.764 92.3326 266.764 92.3326 267.33 92.3046C268.094 92.3046 268.858 92.3046 269.651 92.3046C270.528 92.3046 270.5 92.137 270.557 93.1706C270.585 94.1204 270.726 95.0423 270.981 95.9362C272.764 101.97 276.755 105.713 283.009 106.859C290.849 108.256 298.292 103.283 300.104 95.6289C300.33 94.7071 300.443 93.7852 300.472 92.8354C300.472 92.3046 300.5 92.3046 300.981 92.3046C301.915 92.3046 302.849 92.3046 303.755 92.3046C304.236 92.3046 304.236 92.3326 304.236 92.8075C304.179 95.0702 303.755 97.305 302.821 99.3722C300.047 105.574 295.264 109.317 288.528 110.574C287.538 110.77 286.519 110.826 285.613 110.826Z" fill="white"/>
</g>
</g>
<defs>
<clipPath id="clip0_1_3">
<rect width="567" height="127" fill="white"/>
</clipPath>
<clipPath id="clip1_1_3">
<rect width="75" height="74" fill="white" transform="translate(248 53)"/>
</clipPath>
</defs>
</svg>
