<svg width="22" height="23" viewBox="0 0 22 23" fill="none" xmlns="http://www.w3.org/2000/svg">
<path d="M13.8787 19.6507V13.1323H15.9809L16.2954 10.5983H13.8787V8.98131C13.8787 8.24769 14.0751 7.74706 15.088 7.74706H16.3801V5.48068C15.7546 5.41176 15.1259 5.37833 14.4968 5.38056C12.6343 5.38056 11.3592 6.56147 11.3592 8.73053V10.5983H9.25249V13.1323H11.3592V19.6507H3.60446C3.36548 19.6507 3.13628 19.5521 2.96729 19.3766C2.79831 19.2011 2.70337 18.9631 2.70337 18.715V3.743C2.70337 3.49482 2.79831 3.25681 2.96729 3.08133C3.13628 2.90584 3.36548 2.80725 3.60446 2.80725H18.0219C18.2609 2.80725 18.4901 2.90584 18.6591 3.08133C18.8281 3.25681 18.923 3.49482 18.923 3.743V18.715C18.923 18.9631 18.8281 19.2011 18.6591 19.3766C18.4901 19.5521 18.2609 19.6507 18.0219 19.6507H13.8787Z" fill="#7D7D7D"/>
</svg>
