<svg width="22" height="22" viewBox="0 0 22 22" fill="none" xmlns="http://www.w3.org/2000/svg">
<path d="M10.9999 1.83334C13.4905 1.83334 13.8013 1.84251 14.7784 1.88834C15.7547 1.93418 16.4193 2.08726 17.0041 2.31459C17.6091 2.54743 18.1188 2.86276 18.6284 3.37151C19.0945 3.82975 19.4552 4.38405 19.6853 4.99584C19.9118 5.57976 20.0658 6.24526 20.1116 7.22151C20.1547 8.19868 20.1666 8.50943 20.1666 11C20.1666 13.4906 20.1574 13.8013 20.1116 14.7785C20.0658 15.7548 19.9118 16.4193 19.6853 17.0042C19.4559 17.6163 19.0951 18.1707 18.6284 18.6285C18.17 19.0945 17.6158 19.4551 17.0041 19.6854C16.4202 19.9118 15.7547 20.0658 14.7784 20.1117C13.8013 20.1548 13.4905 20.1667 10.9999 20.1667C8.50934 20.1667 8.19859 20.1575 7.22142 20.1117C6.24517 20.0658 5.58059 19.9118 4.99575 19.6854C4.38372 19.4558 3.82932 19.095 3.37142 18.6285C2.90521 18.1703 2.54452 17.616 2.3145 17.0042C2.08717 16.4203 1.93409 15.7548 1.88825 14.7785C1.84517 13.8013 1.83325 13.4906 1.83325 11C1.83325 8.50943 1.84242 8.19868 1.88825 7.22151C1.93409 6.24434 2.08717 5.58068 2.3145 4.99584C2.54389 4.38367 2.90466 3.82922 3.37142 3.37151C3.82945 2.90514 4.38381 2.54443 4.99575 2.31459C5.58059 2.08726 6.24425 1.93418 7.22142 1.88834C8.19859 1.84526 8.50934 1.83334 10.9999 1.83334ZM10.9999 6.41668C9.78434 6.41668 8.61855 6.89956 7.75901 7.7591C6.89947 8.61865 6.41658 9.78443 6.41658 11C6.41658 12.2156 6.89947 13.3814 7.75901 14.2409C8.61855 15.1005 9.78434 15.5833 10.9999 15.5833C12.2155 15.5833 13.3813 15.1005 14.2408 14.2409C15.1004 13.3814 15.5833 12.2156 15.5833 11C15.5833 9.78443 15.1004 8.61865 14.2408 7.7591C13.3813 6.89956 12.2155 6.41668 10.9999 6.41668ZM16.9583 6.18751C16.9583 5.88362 16.8375 5.59217 16.6226 5.37728C16.4078 5.1624 16.1163 5.04168 15.8124 5.04168C15.5085 5.04168 15.2171 5.1624 15.0022 5.37728C14.7873 5.59217 14.6666 5.88362 14.6666 6.18751C14.6666 6.4914 14.7873 6.78285 15.0022 6.99774C15.2171 7.21262 15.5085 7.33334 15.8124 7.33334C16.1163 7.33334 16.4078 7.21262 16.6226 6.99774C16.8375 6.78285 16.9583 6.4914 16.9583 6.18751ZM10.9999 8.25001C11.7293 8.25001 12.4287 8.53974 12.9445 9.05547C13.4602 9.57119 13.7499 10.2707 13.7499 11C13.7499 11.7294 13.4602 12.4288 12.9445 12.9446C12.4287 13.4603 11.7293 13.75 10.9999 13.75C10.2706 13.75 9.5711 13.4603 9.05537 12.9446C8.53965 12.4288 8.24992 11.7294 8.24992 11C8.24992 10.2707 8.53965 9.57119 9.05537 9.05547C9.5711 8.53974 10.2706 8.25001 10.9999 8.25001Z" fill="#7D7D7D"/>
</svg>
