<svg width="23" height="22" viewBox="0 0 23 22" fill="none" xmlns="http://www.w3.org/2000/svg">
<path d="M22.2812 4.70508C21.4724 5.04125 20.6166 5.26273 19.7409 5.36251C20.6612 4.84704 21.3533 4.02814 21.6874 3.05938C20.8173 3.54604 19.8669 3.88751 18.8771 4.06915C18.4602 3.65129 17.9589 3.31887 17.4036 3.0921C16.8483 2.86533 16.2505 2.74894 15.6467 2.75001C13.2021 2.75001 11.2237 4.61485 11.2237 6.91368C11.222 7.23344 11.2603 7.55224 11.3378 7.86329C9.58484 7.78468 7.8683 7.35694 6.29804 6.60742C4.72778 5.8579 3.33836 4.80312 2.21869 3.51055C1.82588 4.14396 1.61815 4.86667 1.61719 5.60313C1.61719 7.04688 2.40467 8.32305 3.59375 9.07071C2.88925 9.05472 2.19919 8.87636 1.58215 8.55079V8.60235C1.58215 10.6219 3.10949 12.302 5.13098 12.6844C4.75084 12.7813 4.35911 12.8304 3.9657 12.8305C3.68655 12.8309 3.40803 12.805 3.1342 12.7531C3.69617 14.4074 5.33178 15.6106 7.26926 15.6449C5.69492 16.8055 3.76204 17.4327 1.77441 17.4281C1.42161 17.4276 1.06913 17.4075 0.71875 17.368C2.74076 18.603 5.0912 19.2562 7.49027 19.25C15.6373 19.25 20.0882 12.9035 20.0882 7.39922C20.0882 7.21876 20.0832 7.03829 20.0742 6.86211C20.9381 6.27433 21.6855 5.54388 22.2812 4.70508Z" fill="#7D7D7D"/>
</svg>
